<svg width="42" height="42" viewBox="0 0 42 42" fill="none" xmlns="http://www.w3.org/2000/svg">
<path fill-rule="evenodd" clip-rule="evenodd" d="M30.625 4.8125C31.3499 4.8125 31.9375 5.40013 31.9375 6.125V10.0625H35.875C36.5999 10.0625 37.1875 10.6501 37.1875 11.375C37.1875 12.0999 36.5999 12.6875 35.875 12.6875H31.9375V16.625C31.9375 17.3499 31.3499 17.9375 30.625 17.9375C29.9001 17.9375 29.3125 17.3499 29.3125 16.625V12.6875H25.375C24.6501 12.6875 24.0625 12.0999 24.0625 11.375C24.0625 10.6501 24.6501 10.0625 25.375 10.0625H29.3125V6.125C29.3125 5.40013 29.9001 4.8125 30.625 4.8125Z" fill="#7A00CF"/>
<path d="M3.5 11.375C3.5 7.66269 3.5 5.80653 4.65327 4.65327C5.80653 3.5 7.66269 3.5 11.375 3.5C15.0873 3.5 16.9435 3.5 18.0967 4.65327C19.25 5.80653 19.25 7.66269 19.25 11.375C19.25 15.0873 19.25 16.9435 18.0967 18.0967C16.9435 19.25 15.0873 19.25 11.375 19.25C7.66269 19.25 5.80653 19.25 4.65327 18.0967C3.5 16.9435 3.5 15.0873 3.5 11.375Z" fill="#7A00CF"/>
<path d="M22.75 30.625C22.75 26.9127 22.75 25.0565 23.9033 23.9033C25.0565 22.75 26.9127 22.75 30.625 22.75C34.3373 22.75 36.1935 22.75 37.3467 23.9033C38.5 25.0565 38.5 26.9127 38.5 30.625C38.5 34.3373 38.5 36.1935 37.3467 37.3467C36.1935 38.5 34.3373 38.5 30.625 38.5C26.9127 38.5 25.0565 38.5 23.9033 37.3467C22.75 36.1935 22.75 34.3373 22.75 30.625Z" fill="#7A00CF"/>
<path opacity="0.5" d="M3.5 30.625C3.5 26.9127 3.5 25.0565 4.65327 23.9033C5.80653 22.75 7.66269 22.75 11.375 22.75C15.0873 22.75 16.9435 22.75 18.0967 23.9033C19.25 25.0565 19.25 26.9127 19.25 30.625C19.25 34.3373 19.25 36.1935 18.0967 37.3467C16.9435 38.5 15.0873 38.5 11.375 38.5C7.66269 38.5 5.80653 38.5 4.65327 37.3467C3.5 36.1935 3.5 34.3373 3.5 30.625Z" fill="#7A00CF"/>
</svg>
